<?xml version="1.0" encoding="UTF-8" standalone="no"?>
<!-- Uploaded to: SVG Repo, www.svgrepo.com, Generator: SVG Repo Mixer Tools -->

<svg
   fill="#000000"
   version="1.1"
   id="Layer_1"
   width="800px"
   height="800px"
   viewBox="0 0 100 100"
   enable-background="new 0 0 100 100"
   xml:space="preserve"
   sodipodi:docname="left_foot.svg"
   inkscape:version="1.4 (86a8ad7, 2024-10-11)"
   xmlns:inkscape="http://www.inkscape.org/namespaces/inkscape"
   xmlns:sodipodi="http://sodipodi.sourceforge.net/DTD/sodipodi-0.dtd"
   xmlns="http://www.w3.org/2000/svg"
   xmlns:svg="http://www.w3.org/2000/svg"><defs
   id="defs4">
	
	
	
	
	
</defs><sodipodi:namedview
   id="namedview4"
   pagecolor="#505050"
   bordercolor="#eeeeee"
   borderopacity="1"
   inkscape:showpageshadow="0"
   inkscape:pageopacity="0"
   inkscape:pagecheckerboard="0"
   inkscape:deskcolor="#d1d1d1"
   inkscape:zoom="1.02625"
   inkscape:cx="400.48721"
   inkscape:cy="399.51279"
   inkscape:window-width="1277"
   inkscape:window-height="1000"
   inkscape:window-x="1920"
   inkscape:window-y="962"
   inkscape:window-maximized="0"
   inkscape:current-layer="Layer_1" />
<path
   id="circle1"
   d="M 65.793945 6.763916 A 8.7670002 8.7670002 0 0 0 57.0271 15.531006 A 8.7670002 8.7670002 0 0 0 65.793945 24.298096 A 8.7670002 8.7670002 0 0 0 74.561035 15.531006 A 8.7670002 8.7670002 0 0 0 65.793945 6.763916 z M 47.711914 12.860107 A 5.4689999 5.4689999 0 0 0 42.24292 18.329102 A 5.4689999 5.4689999 0 0 0 47.711914 23.798096 A 5.4689999 5.4689999 0 0 0 53.180908 18.329102 A 5.4689999 5.4689999 0 0 0 47.711914 12.860107 z M 36.160889 22.351074 A 4.342 4.342 0 0 0 31.819092 26.693115 A 4.342 4.342 0 0 0 36.160889 31.034912 A 4.342 4.342 0 0 0 40.50293 26.693115 A 4.342 4.342 0 0 0 36.160889 22.351074 z M 55.288086 27.615967 C 43.962086 27.615967 34.781006 36.797047 34.781006 48.123047 C 34.781006 50.335047 35.141039 52.461008 35.790039 54.458008 C 36.226039 56.250008 36.92891 57.932994 37.85791 59.468994 L 37.761963 59.523926 L 52.615967 85.25293 C 54.183967 89.89293 58.562957 93.237061 63.730957 93.237061 C 70.214957 93.237061 75.474121 87.981094 75.474121 81.496094 C 75.474121 78.683094 74.482055 76.102078 72.831055 74.080078 L 72.903076 74.042969 C 71.516076 71.805969 70.700928 69.176098 70.700928 66.350098 C 70.700928 63.886098 71.317066 61.568029 72.393066 59.530029 L 72.358887 59.479004 C 74.526887 56.227004 75.794922 52.324047 75.794922 48.123047 C 75.794922 36.797047 66.613086 27.615967 55.288086 27.615967 z M 28.549072 31.542969 A 4.342 4.342 0 0 0 24.207031 35.88501 A 4.342 4.342 0 0 0 28.549072 40.227051 A 4.342 4.342 0 0 0 32.891113 35.88501 A 4.342 4.342 0 0 0 28.549072 31.542969 z " />
</svg>
