<?xml version="1.0" encoding="UTF-8" standalone="no"?>
<!-- Uploaded to: SVG Repo, www.svgrepo.com, Generator: SVG Repo Mixer Tools -->

<svg
   fill="#000000"
   version="1.1"
   id="Layer_1"
   width="800px"
   height="800px"
   viewBox="0 0 100 100"
   enable-background="new 0 0 100 100"
   xml:space="preserve"
   sodipodi:docname="right_foot.svg"
   inkscape:version="1.4 (86a8ad7, 2024-10-11)"
   xmlns:inkscape="http://www.inkscape.org/namespaces/inkscape"
   xmlns:sodipodi="http://sodipodi.sourceforge.net/DTD/sodipodi-0.dtd"
   xmlns="http://www.w3.org/2000/svg"
   xmlns:svg="http://www.w3.org/2000/svg"><defs
   id="defs4">
	
	
	
	
	
</defs><sodipodi:namedview
   id="namedview4"
   pagecolor="#505050"
   bordercolor="#eeeeee"
   borderopacity="1"
   inkscape:showpageshadow="0"
   inkscape:pageopacity="0"
   inkscape:pagecheckerboard="0"
   inkscape:deskcolor="#d1d1d1"
   inkscape:zoom="0.2565625"
   inkscape:cx="344.94519"
   inkscape:cy="818.51401"
   inkscape:window-width="1278"
   inkscape:window-height="1000"
   inkscape:window-x="3192"
   inkscape:window-y="962"
   inkscape:window-maximized="0"
   inkscape:current-layer="Layer_1" />
<path
   id="circle1"
   d="M -34.208008 6.763916 A 8.7670002 8.7670002 0 0 1 -25.440918 15.531006 A 8.7670002 8.7670002 0 0 1 -34.208008 24.298096 A 8.7670002 8.7670002 0 0 1 -42.975098 15.531006 A 8.7670002 8.7670002 0 0 1 -34.208008 6.763916 z M -52.290039 12.860107 A 5.4689999 5.4689999 0 0 1 -46.821045 18.329102 A 5.4689999 5.4689999 0 0 1 -52.290039 23.798096 A 5.4689999 5.4689999 0 0 1 -57.759033 18.329102 A 5.4689999 5.4689999 0 0 1 -52.290039 12.860107 z M -63.841064 22.351074 A 4.342 4.342 0 0 1 -59.499023 26.693115 A 4.342 4.342 0 0 1 -63.841064 31.034912 A 4.342 4.342 0 0 1 -68.183105 26.693115 A 4.342 4.342 0 0 1 -63.841064 22.351074 z M -44.714111 27.615967 C -33.389111 27.615967 -24.207031 36.797047 -24.207031 48.123047 C -24.207031 52.324047 -25.475066 56.227004 -27.643066 59.479004 L -27.608887 59.530029 C -28.684887 61.568029 -29.301025 63.886098 -29.301025 66.350098 C -29.301025 69.176098 -28.486121 71.805969 -27.099121 74.042969 L -27.170898 74.080078 C -25.519898 76.102078 -24.528076 78.683094 -24.528076 81.496094 C -24.528076 87.981094 -29.786996 93.237061 -36.270996 93.237061 C -41.438996 93.237061 -45.817986 89.89293 -47.385986 85.25293 L -62.23999 59.523926 L -62.144043 59.468994 C -63.073043 57.932994 -63.775914 56.250008 -64.211914 54.458008 C -64.860914 52.461008 -65.220947 50.335047 -65.220947 48.123047 C -65.220947 36.797047 -56.040111 27.615967 -44.714111 27.615967 z M -71.453125 31.542969 A 4.342 4.342 0 0 1 -67.111084 35.88501 A 4.342 4.342 0 0 1 -71.453125 40.227051 A 4.342 4.342 0 0 1 -75.794922 35.88501 A 4.342 4.342 0 0 1 -71.453125 31.542969 z "
   transform="scale(-1,1)" />
</svg>
